<svg id="Layer_1" data-name="Layer 1" xmlns="http://www.w3.org/2000/svg" viewBox="0 0 167 172"><defs><style>.cls-1{fill:#dcd3bb;}.cls-2{fill:#ccc;}</style></defs><rect class="cls-1" width="167" height="172"/><path class="cls-2" d="M459,396l29-26V470l-29-27H439a8.06,8.06,0,0,1-3-2,8,8,0,0,1-2-4V402a5.39,5.39,0,0,1,2-4,5.31,5.31,0,0,1,4-1Z" transform="translate(-400 -333)"/><path class="cls-2" d="M448,333c.08,7.22-5,13.12-11,14-7.17,1-14.87-5.19-15-14Z" transform="translate(-400 -333)"/><path class="cls-2" d="M545,333c.25,7.39-5.34,13.5-12,14-7.32.54-14.22-5.83-14-14Z" transform="translate(-400 -333)"/><path class="cls-2" d="M492,426a4.1,4.1,0,1,0,0-8v-8c6.85-.25,12.51,4.9,13,11,.54,6.75-5.37,13.21-13,13Z" transform="translate(-400 -333)"/><path class="cls-2" d="M499,438a38.12,38.12,0,0,0,4-3,27.31,27.31,0,0,0,4-4,18.43,18.43,0,0,0,3-5,10.9,10.9,0,0,0,1-6,14,14,0,0,0-1-3,26.94,26.94,0,0,0-2-4,30,30,0,0,0-4-5c-.53-.58-1.69-1.72-4-4h0l6-6a44.32,44.32,0,0,1,7,7,32.18,32.18,0,0,1,5,8,19.84,19.84,0,0,1,2,8c0,4.28-1.65,7.45-3,10a38.27,38.27,0,0,1-6,8c-2.32,2.61-6,6-6,6Z" transform="translate(-400 -333)"/><path class="cls-2" d="M535,431" transform="translate(-400 -333)"/><path class="cls-2" d="M509,449a44.33,44.33,0,0,0,6-5,34,34,0,0,0,5-6,32.8,32.8,0,0,0,3-6,27.05,27.05,0,0,0,2-7,22,22,0,0,0,0-6,24.09,24.09,0,0,0-1-4,34.89,34.89,0,0,0-2-5,36.58,36.58,0,0,0-3-5,51.18,51.18,0,0,0-4-5,70,70,0,0,0-6-6l6-7a66.87,66.87,0,0,1,9,9,59.19,59.19,0,0,1,5,7,33.64,33.64,0,0,1,3.75,7.66A29.91,29.91,0,0,1,534,419a43.5,43.5,0,0,1-1,11,38.19,38.19,0,0,1-4,11,40.21,40.21,0,0,1-6,8c-2.46,2.55-8,7-8,7Z" transform="translate(-400 -333)"/><path class="cls-2" d="M545,432" transform="translate(-400 -333)"/></svg>