<svg id="Layer_1" data-name="Layer 1" xmlns="http://www.w3.org/2000/svg" viewBox="0 0 167 167"><defs><style>.cls-1{fill:#dcd3bb;}.cls-2{fill:#ccc;}</style></defs><rect class="cls-1" width="167" height="167"/><path class="cls-2" d="M459,396.67l29-25.25v97.1L459,442.3H439a8,8,0,0,1-3-1.94,7.64,7.64,0,0,1-2-3.88v-34a5.16,5.16,0,0,1,2-3.88,5.43,5.43,0,0,1,4-1Z" transform="translate(-400 -335.5)"/><path class="cls-2" d="M448,335.5c.08,7-5,12.74-11,13.59-7.17,1-14.87-5-15-13.59Z" transform="translate(-400 -335.5)"/><path class="cls-2" d="M545,335.5a13,13,0,1,1-26,0Z" transform="translate(-400 -335.5)"/><path class="cls-2" d="M492,425.8a4,4,0,1,0,0-7.77v-7.77c6.85-.24,12.51,4.76,13,10.68.54,6.56-5.37,12.83-13,12.62Z" transform="translate(-400 -335.5)"/><path class="cls-2" d="M499,437.45a37.1,37.1,0,0,0,4-2.92,26.84,26.84,0,0,0,4-3.88,17.84,17.84,0,0,0,3-4.85,10.33,10.33,0,0,0,1-5.83,13.2,13.2,0,0,0-1-2.91,26.25,26.25,0,0,0-2-3.89,29.24,29.24,0,0,0-4-4.85c-.53-.56-1.69-1.67-4-3.88h0l6-5.83a43.6,43.6,0,0,1,7,6.8,31.17,31.17,0,0,1,5,7.76,18.79,18.79,0,0,1,2,7.77c0,4.16-1.65,7.23-3,9.71a37.39,37.39,0,0,1-6,7.77c-2.32,2.53-6,5.82-6,5.82Z" transform="translate(-400 -335.5)"/><path class="cls-2" d="M535,430.65" transform="translate(-400 -335.5)"/><path class="cls-2" d="M509,448.13a44,44,0,0,0,6-4.86,32.9,32.9,0,0,0,5-5.82,31.51,31.51,0,0,0,3-5.83,25.58,25.58,0,0,0,2-6.79,20.79,20.79,0,0,0,0-5.83,22.58,22.58,0,0,0-1-3.88,33.62,33.62,0,0,0-2-4.86,35.66,35.66,0,0,0-3-4.85,49.37,49.37,0,0,0-4-4.86,68.71,68.71,0,0,0-6-5.82l6-6.8a65.5,65.5,0,0,1,9,8.74,55.94,55.94,0,0,1,5,6.8,32.18,32.18,0,0,1,3.75,7.43A28.29,28.29,0,0,1,534,419a41,41,0,0,1-1,10.68,36.22,36.22,0,0,1-4,10.68,39.24,39.24,0,0,1-6,7.77c-2.46,2.48-8,6.79-8,6.79Z" transform="translate(-400 -335.5)"/><path class="cls-2" d="M545,431.62" transform="translate(-400 -335.5)"/></svg>